<svg xmlns="http://www.w3.org/2000/svg" id="Layer_1" width="1440" height="656" x="0" y="0" version="1.1" xml:space="preserve">
  <defs/>
  <style>
    .st0{fill:none}.st5{fill:#5ec4b6}
  </style>
  <path d="M1440 481.1v-4.9zM1440 458.4v-4.1z" class="st0"/>
  <linearGradient id="SVGID_1_" x1="1140.683" x2="24.619" y1="299.81" y2="201.291" gradientUnits="userSpaceOnUse">
    <stop offset="0" stop-color="#298f7e"/>
    <stop offset=".072" stop-color="#189a85"/>
    <stop offset="1" stop-color="#00a88e"/>
  </linearGradient>
  <path fill="url(#SVGID_1_)" fill-opacity=".63" fill-rule="evenodd" d="M404 338c188.5 79.7 346.1 127.9 461.9 136.2 83.5 6 170 6.9 257.9 3.5 73.3-2.9 145.3-8.8 214.8-16.8l5.1-.6 5.3-.6c32.5-3.9 62.9-8.1 91-12.5v-32.8c-23.4 3.3-48.1 6.5-73.9 9.4l-2.9.3-5.6.6c-74.1 8.1-150.6 13.6-228 15.4-92.9 2.2-183.5-.7-270.4-9.7-116.2-12-266.6-70.6-442.6-166.6C339 221.4 258 172.6 174.7 118.7 115.5 80.3 57 40.6 0 .3v143.5c58.4 30.9 118 61.4 178.1 90.8C256 272.7 331.6 307.4 404 338z" clip-rule="evenodd"/>
  <linearGradient id="SVGID_2_" x1="1132.501" x2="34.806" y1="529.962" y2="433.064" gradientUnits="userSpaceOnUse">
    <stop offset="0" stop-color="#298f7e"/>
    <stop offset=".072" stop-color="#189a85"/>
    <stop offset="1" stop-color="#00a88e"/>
  </linearGradient>
  <path fill="url(#SVGID_2_)" fill-opacity=".63" fill-rule="evenodd" d="M791.7 572.3c93.1 3.9 191.6 2.1 293.5-4.7 85.4-5.7 170.6-14.6 253.7-25.9l6-.8 6-.8c31.1-4.4 60.9-8.9 89.1-13.5V517c-34.2 5.7-71.2 11.3-110.5 16.5-145.8 19.2-291.4 29-427.2 24.7-39.9-1.3-78.5-3.8-115.5-7.6-82-8.4-168.7-22.5-259.7-41.9-165.2-35.4-340-86.9-518.7-150.3l-8.4-3v98.3c227 53.2 463.8 92.5 705.8 113.1 27.9 2.4 56.6 4.2 85.9 5.5z" clip-rule="evenodd"/>
  <linearGradient id="SVGID_3_" x1="1134.972" x2="32.294" y1="440.835" y2="343.497" gradientUnits="userSpaceOnUse">
    <stop offset="0" stop-color="#298f7e"/>
    <stop offset=".072" stop-color="#189a85"/>
    <stop offset="1" stop-color="#00a88e"/>
  </linearGradient>
  <path fill="url(#SVGID_3_)" fill-opacity=".63" fill-rule="evenodd" d="M540.7 475.1C629.5 494 714 507.8 793.6 516c35.4 3.6 72.5 6 110.9 7.2 131.7 4.2 274-5.3 416.5-24.1l5.7-.8c40.5-5.4 78.5-11.3 113.3-17.2v-4.9l-.7.1c-35.2 5.6-74.3 11-116.6 15.8-72.3 8.3-147.2 14.1-223.1 16.8-91.7 3.2-181.2 1.6-267.1-5.6-122-10.2-272.9-48.6-446.3-110.1-91.9-32.6-188.3-71-287.4-114-33.2-14.4-66.2-29.1-98.8-44v81.4l29.4 10.5c176.4 62.6 348.9 113.4 511.3 148z" clip-rule="evenodd"/>
  <linearGradient id="SVGID_4_" x1="1136.976" x2="30.294" y1="382.733" y2="285.042" gradientUnits="userSpaceOnUse">
    <stop offset="0" stop-color="#298f7e"/>
    <stop offset=".072" stop-color="#189a85"/>
    <stop offset="1" stop-color="#00a88e"/>
  </linearGradient>
  <path fill="url(#SVGID_4_)" fill-opacity=".63" fill-rule="evenodd" d="M396.8 377.6c171.2 60.7 319.8 98.5 438.6 108.5 84.5 7.1 172.7 8.7 263.2 5.5 75-2.6 149-8.4 220.5-16.6l5.2-.6c42.2-4.9 81-10.3 115.8-15.9v-4.1c-30.7 4.7-64.2 9.3-99.9 13.4-69.8 8.1-142.2 14-215.8 16.9-88.4 3.5-175.4 2.6-259.4-3.5-117.5-8.5-276.1-57-465.7-137.1-72.6-30.7-148.4-65.5-226.4-103.7-58.3-28.5-116.1-58-172.8-88v62.3c36.6 16.8 73.7 33.4 111.1 49.6 98.5 42.7 194.3 80.9 285.6 113.3z" clip-rule="evenodd"/>
  <path d="M399.2 344c189.6 80.2 348.2 128.7 465.7 137.1 84 6.1 171 7 259.4 3.5 73.6-2.9 146-8.8 215.8-16.9 35.8-4.2 69.2-8.7 99.9-13.4v-7.1c-28.1 4.4-58.6 8.6-91 12.5l-5.3.6-5.1.6c-69.5 8.1-141.5 13.9-214.8 16.8-88 3.5-174.4 2.6-257.9-3.5C750.1 465.9 592.5 417.8 404 338c-72.4-30.6-148-65.4-225.9-103.4C118 205.2 58.4 174.7 0 143.8v8.6c56.7 29.9 114.5 59.5 172.8 88 78 38.1 153.8 72.9 226.4 103.6z" class="st5"/>
  <path d="M386.3 393.2c173.4 61.5 324.3 99.9 446.3 110.1 85.9 7.2 175.4 8.8 267.1 5.6 75.9-2.7 150.8-8.5 223.1-16.8 42.4-4.8 81.5-10.2 116.6-15.8l.7-.1v-17.8c-34.8 5.6-73.6 11-115.8 15.9l-5.2.6c-71.5 8.2-145.5 14-220.5 16.6-90.4 3.2-178.7 1.6-263.2-5.5-118.8-10-267.4-47.8-438.6-108.5-91.3-32.4-187.1-70.6-285.7-113.3C73.7 248.1 36.6 231.5 0 214.7v20.5c32.6 14.9 65.6 29.6 98.8 44 99.2 43 195.6 81.4 287.5 114z" class="st5"/>
  <path d="M527.2 508.5c90.9 19.4 177.7 33.5 259.7 41.9 37 3.8 75.6 6.3 115.5 7.6 135.7 4.3 281.4-5.4 427.2-24.7 39.2-5.2 76.3-10.8 110.5-16.5v-35.7c-34.8 6-72.8 11.8-113.3 17.2l-5.7.8c-142.5 18.8-284.8 28.3-416.5 24.1-38.6-1.2-75.6-3.6-111-7.2-79.6-8.2-164.1-21.9-252.9-40.9-162.4-34.6-334.9-85.4-511.3-148L0 316.6v38.8l8.4 3c178.7 63.4 353.5 114.9 518.8 150.1z" class="st5"/>
  <path fill="#00b99c" d="M1350.9 540l-6 .8-6 .8c-83.1 11.4-168.3 20.3-253.7 25.9-101.9 6.8-200.4 8.6-293.5 4.7-29.3-1.2-58-3-85.9-5.4C463.8 546.3 227 507 0 453.7v85.6c223.1 50.8 455.3 88.4 692.7 108.6 30.2 2.6 61 4.5 92.5 5.8 99 4.2 203 2.2 310.2-4.9 89.1-5.9 177.8-15.2 264.2-27 27.8-3.8 54.7-7.8 80.4-11.8v-83.6c-28.2 4.7-57.9 9.2-89.1 13.6z"/>
  <g>
    <path fill="#fff" d="M1095.4 648.7c-107.2 7.1-211.1 9-310.2 4.9-31.5-1.3-62.3-3.2-92.5-5.8C455.3 627.6 223.1 590 0 539.3v116.6h1440v-46c-25.7 4.1-52.5 8-80.4 11.8-86.4 11.8-175.1 21.1-264.2 27z"/>
  </g>
</svg>